<mxfile host="app.diagrams.net" modified="2021-10-18T09:44:28.576Z" agent="5.0 (Windows NT 10.0; WOW64) AppleWebKit/537.36 (KHTML, like Gecko) Chrome/92.0.4515.159 Safari/537.36" etag="lba5Cyf91QbRCQPUt2ZW" version="14.8.0" type="github">
  <diagram id="OSN7Fb9BYKplV7MyUneg" name="Page-1">
    <mxGraphModel dx="1038" dy="547" grid="1" gridSize="10" guides="1" tooltips="1" connect="1" arrows="1" fold="1" page="1" pageScale="1" pageWidth="827" pageHeight="1169" math="0" shadow="0">
      <root>
        <mxCell id="0" />
        <mxCell id="1" parent="0" />
        <mxCell id="Ig2JOxSKs3b6VhEE4bXi-10" style="edgeStyle=orthogonalEdgeStyle;rounded=0;orthogonalLoop=1;jettySize=auto;html=1;entryX=0.5;entryY=0;entryDx=0;entryDy=0;" edge="1" parent="1" source="YgXmGn9mgegNAeK_GEGQ-1" target="Ig2JOxSKs3b6VhEE4bXi-4">
          <mxGeometry relative="1" as="geometry" />
        </mxCell>
        <mxCell id="Ig2JOxSKs3b6VhEE4bXi-11" style="edgeStyle=orthogonalEdgeStyle;rounded=0;orthogonalLoop=1;jettySize=auto;html=1;" edge="1" parent="1" source="YgXmGn9mgegNAeK_GEGQ-1" target="Ig2JOxSKs3b6VhEE4bXi-3">
          <mxGeometry relative="1" as="geometry">
            <Array as="points">
              <mxPoint x="420" y="160" />
              <mxPoint x="260" y="160" />
            </Array>
          </mxGeometry>
        </mxCell>
        <mxCell id="Ig2JOxSKs3b6VhEE4bXi-12" style="edgeStyle=orthogonalEdgeStyle;rounded=0;orthogonalLoop=1;jettySize=auto;html=1;entryX=0.5;entryY=0;entryDx=0;entryDy=0;" edge="1" parent="1" source="YgXmGn9mgegNAeK_GEGQ-1" target="Ig2JOxSKs3b6VhEE4bXi-2">
          <mxGeometry relative="1" as="geometry">
            <Array as="points">
              <mxPoint x="420" y="160" />
              <mxPoint x="100" y="160" />
            </Array>
          </mxGeometry>
        </mxCell>
        <mxCell id="Ig2JOxSKs3b6VhEE4bXi-13" style="edgeStyle=orthogonalEdgeStyle;rounded=0;orthogonalLoop=1;jettySize=auto;html=1;entryX=0.5;entryY=0;entryDx=0;entryDy=0;" edge="1" parent="1" source="YgXmGn9mgegNAeK_GEGQ-1" target="Ig2JOxSKs3b6VhEE4bXi-5">
          <mxGeometry relative="1" as="geometry">
            <Array as="points">
              <mxPoint x="420" y="160" />
              <mxPoint x="580" y="160" />
            </Array>
          </mxGeometry>
        </mxCell>
        <mxCell id="Ig2JOxSKs3b6VhEE4bXi-14" style="edgeStyle=orthogonalEdgeStyle;rounded=0;orthogonalLoop=1;jettySize=auto;html=1;entryX=0.5;entryY=0;entryDx=0;entryDy=0;" edge="1" parent="1" source="YgXmGn9mgegNAeK_GEGQ-1" target="Ig2JOxSKs3b6VhEE4bXi-6">
          <mxGeometry relative="1" as="geometry">
            <Array as="points">
              <mxPoint x="420" y="160" />
              <mxPoint x="740" y="160" />
            </Array>
          </mxGeometry>
        </mxCell>
        <mxCell id="YgXmGn9mgegNAeK_GEGQ-1" value="宠物医院管理系统" style="rounded=0;whiteSpace=wrap;html=1;" parent="1" vertex="1">
          <mxGeometry x="360" y="70" width="120" height="60" as="geometry" />
        </mxCell>
        <mxCell id="Ig2JOxSKs3b6VhEE4bXi-1" style="edgeStyle=orthogonalEdgeStyle;rounded=0;orthogonalLoop=1;jettySize=auto;html=1;exitX=0.5;exitY=1;exitDx=0;exitDy=0;" edge="1" parent="1" source="YgXmGn9mgegNAeK_GEGQ-1" target="YgXmGn9mgegNAeK_GEGQ-1">
          <mxGeometry relative="1" as="geometry" />
        </mxCell>
        <mxCell id="Ig2JOxSKs3b6VhEE4bXi-2" value="登录、注册模块" style="rounded=0;whiteSpace=wrap;html=1;glass=0;horizontal=1;verticalAlign=middle;textDirection=rtl;" vertex="1" parent="1">
          <mxGeometry x="40" y="199" width="120" height="60" as="geometry" />
        </mxCell>
        <mxCell id="Ig2JOxSKs3b6VhEE4bXi-3" value="管理员模块" style="rounded=0;whiteSpace=wrap;html=1;glass=0;verticalAlign=middle;" vertex="1" parent="1">
          <mxGeometry x="200" y="199" width="120" height="60" as="geometry" />
        </mxCell>
        <mxCell id="Ig2JOxSKs3b6VhEE4bXi-4" value="医护人员模块" style="rounded=0;whiteSpace=wrap;html=1;glass=0;verticalAlign=middle;" vertex="1" parent="1">
          <mxGeometry x="360" y="199" width="120" height="60" as="geometry" />
        </mxCell>
        <mxCell id="Ig2JOxSKs3b6VhEE4bXi-5" value="客户模块" style="rounded=0;whiteSpace=wrap;html=1;glass=0;verticalAlign=middle;" vertex="1" parent="1">
          <mxGeometry x="520" y="199" width="120" height="60" as="geometry" />
        </mxCell>
        <mxCell id="Ig2JOxSKs3b6VhEE4bXi-6" value="宠物管理模块" style="rounded=0;whiteSpace=wrap;html=1;glass=0;verticalAlign=middle;" vertex="1" parent="1">
          <mxGeometry x="680" y="199" width="120" height="60" as="geometry" />
        </mxCell>
      </root>
    </mxGraphModel>
  </diagram>
</mxfile>
